<svg xmlns="http://www.w3.org/2000/svg" xmlns:xlink="http://www.w3.org/1999/xlink" >
    <symbol viewBox="0 0 24 24" id="light-bulb-on" xmlns="http://www.w3.org/2000/svg">
        <path d="M 12 0 A 1 1 0 0 0 11 1 A 1 1 0 0 0 12 2 A 1 1 0 0 0 13 1 A 1 1 0 0 0 12 0 z M 4.2226562 3.2226562 A 1 1 0 0 0 3.2226562 4.2226562 A 1 1 0 0 0 4.2226562 5.2226562 A 1 1 0 0 0 5.2226562 4.2226562 A 1 1 0 0 0 4.2226562 3.2226562 z M 19.777344 3.2226562 A 1 1 0 0 0 18.777344 4.2226562 A 1 1 0 0 0 19.777344 5.2226562 A 1 1 0 0 0 20.777344 4.2226562 A 1 1 0 0 0 19.777344 3.2226562 z M 12 5 C 8.14 5 5 8.14 5 12 C 5 14.785 6.639 17.188453 9 18.314453 L 9 21 C 9 22.103 9.897 23 11 23 L 13 23 C 14.103 23 15 22.103 15 21 L 15 18.314453 C 17.361 17.188453 19 14.785 19 12 C 19 8.14 15.86 5 12 5 z M 1 11 A 1 1 0 0 0 0 12 A 1 1 0 0 0 1 13 A 1 1 0 0 0 2 12 A 1 1 0 0 0 1 11 z M 23 11 A 1 1 0 0 0 22 12 A 1 1 0 0 0 23 13 A 1 1 0 0 0 24 12 A 1 1 0 0 0 23 11 z M 4.2226562 18.777344 A 1 1 0 0 0 3.2226562 19.777344 A 1 1 0 0 0 4.2226562 20.777344 A 1 1 0 0 0 5.2226562 19.777344 A 1 1 0 0 0 4.2226562 18.777344 z M 19.777344 18.777344 A 1 1 0 0 0 18.777344 19.777344 A 1 1 0 0 0 19.777344 20.777344 A 1 1 0 0 0 20.777344 19.777344 A 1 1 0 0 0 19.777344 18.777344 z"/>
    </symbol>
    <symbol viewBox="0 0 24 24" id="light-bulb-off" xmlns="http://www.w3.org/2000/svg">
        <path d="M 12 2 C 7.59375 2 4 5.59375 4 10 C 4 11.71875 4.730469 13.460938 5.75 15.03125 C 6.65625 16.421875 7.792969 17.640625 9 18.5 L 9 20 C 9 20.550781 9.449219 21 10 21 L 11 22 L 13 22 L 14 21 C 14.550781 21 15 20.550781 15 20 L 15 18.5 C 16.207031 17.640625 17.34375 16.421875 18.25 15.03125 C 19.269531 13.460938 20 11.71875 20 10 C 20 5.59375 16.40625 2 12 2 Z M 12 4 C 15.324219 4 18 6.675781 18 10 C 18 11.105469 17.441406 12.617188 16.5625 13.96875 C 15.746094 15.226563 14.660156 16.339844 13.6875 17 L 10.3125 17 C 9.339844 16.339844 8.253906 15.226563 7.4375 13.96875 C 6.558594 12.617188 6 11.105469 6 10 C 6 6.675781 8.675781 4 12 4 Z "/>
    </symbol>
    <symbol viewBox="0 0 24 24" id="sql" xmlns="http://www.w3.org/2000/svg">
            <path d="M21.1,0H4.9C2.2,0,0,2.2,0,4.9v16.2C0,23.8,2.2,26,4.9,26h16.2c2.7,0,4.9-2.2,4.9-4.9V4.9C26,2.2,23.8,0,21.1,0z M7.3,16.4   c-0.7,0-1.4-0.2-1.7-0.4l-0.1-0.1L5.8,15c0,0,0-0.1,0.1-0.1c0.1,0,0.1,0,0.1,0c0.3,0.2,0.8,0.4,1.4,0.4c0.6,0,1-0.3,1-0.7   c0-0.3-0.2-0.6-1-0.9c-1.2-0.4-1.7-1-1.7-1.9c0-1.1,0.9-1.9,2.3-1.9c0.7,0,1.2,0.2,1.5,0.3c0.1,0,0.1,0.1,0.1,0.1l-0.3,0.9   c0,0,0,0.1-0.1,0.1H9.1C8.8,11.2,8.4,11,7.9,11C7.2,11,7,11.4,7,11.6c0,0.4,0.2,0.6,1.1,0.9c1.1,0.4,1.6,1,1.6,1.9   S9.1,16.4,7.3,16.4z M15.9,16.2c0,0,0.1,0,0.1,0.1s0,0.1,0,0.1l-0.2,0.8v0c0,0.1-0.1,0.1-0.1,0.1c-0.8-0.2-1.5-0.4-2.4-0.8   c-0.1,0-0.2-0.1-0.4-0.1c-1.4-0.1-2.8-1.1-2.8-3.2c0-2,1.2-3.3,3-3.3c1.7,0,2.9,1.3,2.9,3.2c0,1.3-0.5,2.3-1.4,2.8   C15,16,15.5,16.1,15.9,16.2z M20.6,16.3H17c-0.1,0-0.1-0.1-0.1-0.1v-6.1C16.9,10,17,10,17,10h1c0.1,0,0.1,0.1,0.1,0.1v5h2.4   c0.1,0,0.1,0.1,0.1,0.1v1h0.1C20.7,16.3,20.6,16.3,20.6,16.3z" />
            <path d="M13.1,11c-1.1,0-1.6,1.1-1.6,2.1c0,1.2,0.6,2.1,1.5,2.1c1.1,0,1.6-1.1,1.6-2.1C14.7,12.1,14.2,11,13.1,11z" />
    </symbol>
    <symbol viewBox="0 0 24 24" id="info" xmlns="http://www.w3.org/2000/svg">
        <path d="M13,1.188C6.477,1.188,1.188,6.477,1.188,13S6.477,24.813,13,24.813S24.813,19.523,24.813,13  S19.523,1.188,13,1.188z M15.459,19.495c-0.608,0.24-1.092,0.422-1.455,0.548c-0.362,0.126-0.783,0.189-1.262,0.189  c-0.736,0-1.309-0.18-1.717-0.539s-0.611-0.814-0.611-1.367c0-0.215,0.015-0.435,0.045-0.659c0.031-0.224,0.08-0.476,0.147-0.759  l0.761-2.688c0.067-0.258,0.125-0.503,0.171-0.731c0.046-0.23,0.068-0.441,0.068-0.633c0-0.342-0.071-0.582-0.212-0.717  c-0.143-0.135-0.412-0.201-0.813-0.201c-0.196,0-0.398,0.029-0.605,0.09c-0.205,0.063-0.383,0.12-0.529,0.176l0.201-0.828  c0.498-0.203,0.975-0.377,1.43-0.521c0.455-0.146,0.885-0.218,1.29-0.218c0.731,0,1.295,0.178,1.692,0.53  c0.395,0.353,0.594,0.812,0.594,1.376c0,0.117-0.014,0.323-0.041,0.617c-0.027,0.295-0.078,0.564-0.152,0.811l-0.757,2.68  c-0.062,0.215-0.117,0.461-0.167,0.736c-0.049,0.275-0.073,0.485-0.073,0.626c0,0.356,0.079,0.599,0.239,0.728  c0.158,0.129,0.435,0.194,0.827,0.194c0.185,0,0.392-0.033,0.626-0.097c0.232-0.064,0.4-0.121,0.506-0.17L15.459,19.495z   M15.325,8.617c-0.353,0.328-0.778,0.492-1.275,0.492c-0.496,0-0.924-0.164-1.28-0.492c-0.354-0.328-0.533-0.727-0.533-1.193  c0-0.465,0.18-0.865,0.533-1.196c0.356-0.332,0.784-0.497,1.28-0.497c0.497,0,0.923,0.165,1.275,0.497  c0.353,0.331,0.53,0.731,0.53,1.196C15.855,7.891,15.678,8.289,15.325,8.617z"/>
    </symbol>
    <symbol viewBox="0 0 24 24" id="global" xmlns="http://www.w3.org/2000/svg">
        <g >
            <g >
                <path d="M6.543,9.377l5.913-3.414C10.28,3.711,8.106,2.701,7,3.34S5.681,6.366,6.543,9.377z" />
                <path d="M17.457,14.623l-5.913,3.414c2.177,2.252,4.35,3.262,5.457,2.623S18.319,17.634,17.457,14.623z" />
                <path d="M13.789,7.503l-6.579,3.798C7.569,12.179,8.008,13.086,8.536,14s1.093,1.748,1.675,2.497l6.579-3.798    c-0.358-0.878-0.798-1.785-1.325-2.699S14.371,8.252,13.789,7.503z" />
                <path d="M14.253,4.926l2.736-1.58c-1.86-1.068-4.03-1.527-6.177-1.273C11.952,2.719,13.124,3.684,14.253,4.926z" />
                <path d="M17.196,9c0.523,0.906,0.965,1.805,1.343,2.689l3.222-1.86C21.546,8.859,21.183,7.905,20.66,7s-1.167-1.696-1.899-2.368    l-3.222,1.86C16.115,7.262,16.673,8.094,17.196,9z" />
                <path d="M4.747,10.414c-0.511-1.598-0.761-3.096-0.75-4.406C2.704,7.74,2.017,9.848,2.011,11.993L4.747,10.414z" />
                <path d="M19.253,13.586c0.511,1.598,0.761,3.096,0.75,4.406c1.293-1.732,1.981-3.841,1.986-5.986L19.253,13.586z" />
                <path d="M9.747,19.074l-2.736,1.58c1.86,1.068,4.03,1.527,6.177,1.273C12.048,21.281,10.876,20.316,9.747,19.074z" />
                <path d="M2.239,14.171C2.454,15.141,2.817,16.095,3.34,17s1.167,1.696,1.899,2.368l3.222-1.86C7.885,16.738,7.327,15.906,6.804,15    s-0.965-1.805-1.343-2.689L2.239,14.171z" />
            </g>
        </g>
        <g  style="display:none;">
            <path style="display:inline;" d="M20.66,7C17.903,2.226,11.776,0.583,7,3.339C2.225,6.097,0.583,12.225,3.34,17   c1.851,3.205,5.219,4.998,8.678,4.998c1.694,0,3.412-0.431,4.982-1.337C21.775,17.903,23.417,11.775,20.66,7z M18.928,8   c0.364,0.631,0.63,1.3,0.81,1.986l-2.545,1.47c-0.281-0.624-0.604-1.257-0.971-1.893c-0.367-0.636-0.755-1.232-1.154-1.787   l2.549-1.472C18.117,6.796,18.56,7.363,18.928,8z M16.455,18.635c-0.15,0.1-0.298,0.202-0.455,0.293   c-0.159,0.092-0.322,0.168-0.485,0.248c-0.97,0.023-2.448-0.866-3.926-2.465L16.286,14C16.932,16.081,16.963,17.807,16.455,18.635z    M10.463,15.341c-0.403-0.545-0.797-1.135-1.169-1.779c-0.372-0.643-0.686-1.28-0.956-1.902l5.192-2.997   c0.405,0.547,0.804,1.128,1.177,1.774c0.372,0.643,0.686,1.28,0.956,1.902L10.463,15.341z M7.545,5.365   C7.694,5.265,7.842,5.163,8,5.072c0.165-0.095,0.337-0.167,0.506-0.249c0.006,0,0.01-0.002,0.016-0.002   c0.97,0,2.427,0.895,3.884,2.47L7.714,10C7.068,7.919,7.037,6.193,7.545,5.365z M11.986,4.001c1.451,0,2.878,0.404,4.125,1.15   l-2.143,1.237c-0.872-0.993-1.778-1.782-2.665-2.344C11.531,4.026,11.759,4.001,11.986,4.001z M5.457,7.406   C5.498,8.459,5.729,9.642,6.156,10.9l-2.153,1.243c-0.012-0.738,0.073-1.481,0.269-2.213C4.519,9.01,4.926,8.163,5.457,7.406z    M4.262,14.014l2.545-1.47c0.281,0.624,0.604,1.257,0.971,1.893c0.368,0.637,0.756,1.23,1.156,1.786L6.39,17.693   C5.889,17.199,5.44,16.638,5.072,16C4.708,15.369,4.442,14.7,4.262,14.014z M7.881,18.853l2.151-1.242   c0.871,0.993,1.775,1.788,2.661,2.349C11.011,20.104,9.323,19.716,7.881,18.853z M18.543,16.594   c-0.041-1.053-0.272-2.236-0.699-3.494l2.153-1.243c0.012,0.738-0.073,1.481-0.269,2.213C19.481,14.99,19.074,15.837,18.543,16.594   z" />
        </g>
        <g  style="display:none;" >
            <g style="display:inline;" >
                <path d="M7.111,9.049l4.777-2.758c0.286-0.165,0.34-0.564,0.101-0.792C9.974,3.575,8.027,2.747,7,3.34S5.716,6.033,6.375,8.741    C6.453,9.061,6.826,9.214,7.111,9.049z" />
                <path d="M16.889,14.951l-4.777,2.758c-0.286,0.165-0.34,0.564-0.101,0.792c2.015,1.924,3.963,2.752,4.99,2.159    c1.027-0.593,1.284-2.693,0.625-5.401C17.547,14.939,17.174,14.786,16.889,14.951z" />
                <path d="M13.403,7.726l-5.806,3.352c-0.22,0.127-0.316,0.397-0.215,0.63c0.324,0.75,0.708,1.518,1.154,2.292    c0.447,0.773,0.92,1.49,1.408,2.146c0.152,0.204,0.433,0.256,0.653,0.129l5.806-3.352c0.22-0.127,0.316-0.397,0.215-0.63    c-0.324-0.75-0.708-1.518-1.154-2.292c-0.447-0.773-0.92-1.49-1.408-2.146C13.905,7.65,13.623,7.599,13.403,7.726z" />
                <path d="M14.592,4.73l1.598-0.922c0.357-0.206,0.323-0.727-0.052-0.898c-1.183-0.538-2.461-0.844-3.761-0.897    c-0.486-0.02-0.683,0.608-0.295,0.902c0.637,0.483,1.275,1.059,1.902,1.72C14.141,4.802,14.393,4.845,14.592,4.73z" />
                <path d="M17.196,9c0.424,0.734,0.795,1.464,1.121,2.186c0.122,0.27,0.444,0.375,0.7,0.227l2.413-1.393    c0.195-0.113,0.298-0.343,0.241-0.56C21.451,8.617,21.116,7.79,20.66,7c-0.456-0.79-1.005-1.493-1.624-2.105    c-0.16-0.158-0.411-0.184-0.606-0.072l-2.413,1.393c-0.256,0.148-0.326,0.479-0.154,0.72C16.325,7.58,16.772,8.266,17.196,9z" />
                <path d="M4.63,10.034C4.371,9.161,4.192,8.32,4.092,7.527C4.031,7.045,3.389,6.902,3.163,7.332    c-0.605,1.152-0.978,2.413-1.104,3.706c-0.04,0.41,0.394,0.7,0.751,0.494l1.598-0.922C4.607,10.495,4.696,10.255,4.63,10.034z" />
                <path d="M19.37,13.966c0.259,0.873,0.439,1.714,0.539,2.507c0.061,0.482,0.703,0.625,0.929,0.195    c0.605-1.152,0.978-2.413,1.104-3.706c0.04-0.41-0.394-0.7-0.751-0.494l-1.598,0.922C19.393,13.505,19.304,13.745,19.37,13.966z" />
                <path d="M9.408,19.27L7.81,20.193c-0.357,0.206-0.323,0.727,0.052,0.898c1.183,0.538,2.461,0.844,3.761,0.897    c0.486,0.02,0.683-0.608,0.295-0.902c-0.637-0.483-1.275-1.059-1.902-1.72C9.859,19.198,9.607,19.155,9.408,19.27z" />
                <path d="M2.569,13.981c-0.195,0.113-0.298,0.343-0.241,0.56C2.549,15.383,2.884,16.21,3.34,17s1.005,1.493,1.624,2.105    c0.16,0.158,0.411,0.184,0.606,0.072l2.413-1.393c0.256-0.148,0.326-0.479,0.154-0.72C7.675,16.42,7.228,15.734,6.804,15    c-0.424-0.734-0.795-1.464-1.121-2.186c-0.122-0.27-0.444-0.375-0.7-0.227L2.569,13.981z" />
            </g>
        </g>
        <g  style="display:none;" >
            <g style="display:inline;opacity:0.13;" >
                <circle cx="12" cy="12" r="9" />
            </g>
            <path style="display:inline;" d="M20.66,7C17.903,2.226,11.776,0.583,7,3.339C2.225,6.097,0.583,12.225,3.34,17   c1.851,3.205,5.219,4.998,8.678,4.998c1.694,0,3.412-0.431,4.982-1.337C21.775,17.903,23.417,11.775,20.66,7z M18.928,8   c0.364,0.631,0.63,1.3,0.81,1.986l-2.545,1.47c-0.281-0.624-0.604-1.257-0.971-1.893c-0.367-0.636-0.755-1.232-1.154-1.787   l2.549-1.472C18.117,6.796,18.56,7.363,18.928,8z M16.455,18.635c-0.15,0.1-0.298,0.202-0.455,0.293   c-0.159,0.092-0.322,0.168-0.485,0.248c-0.97,0.023-2.448-0.866-3.926-2.465L16.286,14C16.932,16.081,16.963,17.807,16.455,18.635z    M10.463,15.341c-0.403-0.545-0.797-1.135-1.169-1.779c-0.372-0.643-0.686-1.28-0.956-1.902l5.192-2.997   c0.405,0.547,0.804,1.128,1.177,1.774c0.372,0.643,0.686,1.28,0.956,1.902L10.463,15.341z M7.545,5.365   C7.694,5.265,7.842,5.163,8,5.072c0.165-0.095,0.337-0.167,0.506-0.249c0.006,0,0.01-0.002,0.016-0.002   c0.97,0,2.427,0.895,3.884,2.47L7.714,10C7.068,7.919,7.037,6.193,7.545,5.365z M11.986,4.001c1.451,0,2.878,0.404,4.125,1.15   l-2.143,1.237c-0.872-0.993-1.778-1.782-2.665-2.344C11.531,4.026,11.759,4.001,11.986,4.001z M5.457,7.406   C5.498,8.459,5.729,9.642,6.156,10.9l-2.153,1.243c-0.012-0.738,0.073-1.481,0.269-2.213C4.519,9.01,4.926,8.163,5.457,7.406z    M4.262,14.014l2.545-1.47c0.281,0.624,0.604,1.257,0.971,1.893c0.368,0.637,0.756,1.23,1.156,1.786L6.39,17.693   C5.889,17.199,5.44,16.638,5.072,16C4.708,15.369,4.442,14.7,4.262,14.014z M7.881,18.853l2.151-1.242   c0.871,0.993,1.775,1.788,2.661,2.349C11.011,20.104,9.323,19.716,7.881,18.853z M18.543,16.594   c-0.041-1.053-0.272-2.236-0.699-3.494l2.153-1.243c0.012,0.738-0.073,1.481-0.269,2.213C19.481,14.99,19.074,15.837,18.543,16.594   z" />
        </g>
        <g  style="display:none;" >
            <g style="display:inline;" >
                <path d="M6.543,9.377l5.913-3.414C10.28,3.711,8.106,2.701,7,3.34S5.681,6.366,6.543,9.377z" />
                <path d="M17.457,14.623l-5.913,3.414c2.177,2.252,4.35,3.262,5.457,2.623S18.319,17.634,17.457,14.623z" />
                <path d="M13.789,7.503l-6.579,3.798C7.569,12.179,8.008,13.086,8.536,14s1.093,1.748,1.675,2.497l6.579-3.798    c-0.358-0.878-0.798-1.785-1.325-2.699S14.371,8.252,13.789,7.503z" />
                <path d="M14.253,4.926l2.736-1.58c-1.86-1.068-4.03-1.527-6.177-1.273C11.952,2.719,13.124,3.684,14.253,4.926z" />
                <path d="M17.196,9c0.523,0.906,0.965,1.805,1.343,2.689l3.222-1.86C21.546,8.859,21.183,7.905,20.66,7s-1.167-1.696-1.899-2.368    l-3.222,1.86C16.115,7.262,16.673,8.094,17.196,9z" />
                <path d="M4.747,10.414c-0.511-1.598-0.761-3.096-0.75-4.406C2.704,7.74,2.017,9.848,2.011,11.993L4.747,10.414z" />
                <path d="M19.253,13.586c0.511,1.598,0.761,3.096,0.75,4.406c1.293-1.732,1.981-3.841,1.986-5.986L19.253,13.586z" />
                <path d="M9.747,19.074l-2.736,1.58c1.86,1.068,4.03,1.527,6.177,1.273C12.048,21.281,10.876,20.316,9.747,19.074z" />
                <path d="M2.239,14.171C2.454,15.141,2.817,16.095,3.34,17s1.167,1.696,1.899,2.368l3.222-1.86C7.885,16.738,7.327,15.906,6.804,15    s-0.965-1.805-1.343-2.689L2.239,14.171z" />
            </g>
        </g>
    </symbol>
    <symbol viewBox="0 0 24 24" id="custom" xmlns="http://www.w3.org/2000/svg">
        <g>
            <path d="M12,14c-3.004,0-9,1.508-9,4.5V21h18v-2.5C21,15.508,15.004,14,12,14z" />
            <path d="M13,3.502L12,2c0,0-4,1-4,5c0,2.209,1.791,4,4,4s4-1.791,4-4C16,4.357,13.817,3.502,13,3.502z" />
        </g>
        <g style="display:none;" >
            <path style="display:inline;" d="M13,3.502L12,2c0,0-4,1-4,5c0,2.209,1.791,4,4,4s4-1.791,4-4C16,4.357,13.817,3.502,13,3.502z    M12,9c-1.103,0-2-0.897-2-2c0-1.24,0.644-2.01,1.282-2.469l0.053,0.08l0.594,0.892h1.028C13.088,5.527,14,5.747,14,7   C14,8.103,13.103,9,12,9z" />
            <path style="display:inline;" d="M12,14c-3.141,0-9,1.546-9,4.5V21h18v-2.5C21,15.546,15.141,14,12,14z M19,19H5v-0.5   c0-0.869,3.708-2.5,7-2.5s7,1.631,7,2.5V19z" />
        </g>
        <g style="display:none;" >
            <path style="display:inline;" d="M13,3.502l-0.563-0.846c-0.268-0.403-0.788-0.563-1.229-0.364c-1.006,0.453-2.664,1.503-3.1,3.618   c-0.487,2.364,1.056,4.813,3.456,5.067C13.969,11.231,16,9.353,16,7C16,4.357,13.817,3.502,13,3.502z" />
            <path style="display:inline;" d="M12,14c-3.004,0-9,1.508-9,4.5V20c0,0.552,0.448,1,1,1h16c0.552,0,1-0.448,1-1v-1.5   C21,15.508,15.004,14,12,14z" />
        </g>
        <g style="display:none;" >
            <g style="display:inline;opacity:0.13;" >
                <circle cx="12" cy="7.015" r="3.03" />
            </g>
            <g style="display:inline;opacity:0.13;" >
                <path d="M20.099,19.711H3.901v-0.737c0-1.281,4.29-3.684,8.099-3.684s8.099,2.403,8.099,3.684V19.711z" />
            </g>
            <path style="display:inline;" d="M13,3.502L12,2c0,0-4,1-4,5c0,2.209,1.791,4,4,4s4-1.791,4-4C16,4.357,13.817,3.502,13,3.502z    M12,9c-1.103,0-2-0.897-2-2c0-1.24,0.644-2.01,1.282-2.469l0.053,0.08l0.594,0.892h1.028C13.088,5.527,14,5.747,14,7   C14,8.103,13.103,9,12,9z" />
            <path style="display:inline;" d="M12,14c-3.141,0-9,1.546-9,4.5V21h18v-2.5C21,15.546,15.141,14,12,14z M19,19H5v-0.5   c0-0.869,3.708-2.5,7-2.5s7,1.631,7,2.5V19z" />
        </g>
        <g style="display:none;" >
            <path style="display:inline;" d="M12,14c-3.004,0-9,1.508-9,4.5V21h18v-2.5C21,15.508,15.004,14,12,14z" />
            <path style="display:inline;" d="M13,3.502L12,2c0,0-4,1-4,5c0,2.209,1.791,4,4,4s4-1.791,4-4C16,4.357,13.817,3.502,13,3.502z" />
        </g>
    </symbol>
    <symbol viewBox="0 0 24 24" id="print" xmlns="http://www.w3.org/2000/svg">
        <g >
            <path d="M7,2h10c0.552,0,1,0.448,1,1v2c0,0.552-0.448,1-1,1H7C6.448,6,6,5.552,6,5V3C6,2.448,6.448,2,7,2z"/>
            <g>
                <path d="M15.5,19h-7C8.224,19,8,18.776,8,18.5v-4C8,14.224,8.224,14,8.5,14h7c0.276,0,0.5,0.224,0.5,0.5v4    C16,18.776,15.776,19,15.5,19z M18,13H6v6c0,1.105,0.895,2,2,2h8c1.105,0,2-0.895,2-2V13L18,13z"/>
            </g>
            <path d="M19,8H5c-1.65,0-3,1.35-3,3v4c0,1.105,0.895,2,2,2h3v-4h10v4h3c1.105,0,2-0.895,2-2v-4C22,9.35,20.65,8,19,8z M19,12   c-0.6,0-1-0.4-1-1s0.4-1,1-1s1,0.4,1,1S19.6,12,19,12z"/>
        </g>
    </symbol>
    <symbol viewBox="0 0 32 32" id="wordpress" xmlns="http://www.w3.org/2000/svg">
        <g id="surface1">
            <path style=" " d="M 16 4 C 9.382813 4 4 9.382813 4 16 C 4 22.617188 9.382813 28 16 28 C 22.617188 28 28 22.617188 28 16 C 28 9.382813 22.617188 4 16 4 Z M 16 4.5625 C 22.3125 4.5625 27.4375 9.6875 27.4375 16 C 27.4375 22.3125 22.3125 27.4375 16 27.4375 C 9.6875 27.4375 4.5625 22.3125 4.5625 16 C 4.5625 9.6875 9.6875 4.5625 16 4.5625 Z M 16 5.71875 C 12.402344 5.71875 9.246094 7.546875 7.40625 10.34375 C 7.648438 10.351563 7.867188 10.34375 8.0625 10.34375 C 9.140625 10.34375 10.8125 10.21875 10.8125 10.21875 C 11.367188 10.1875 11.429688 10.996094 10.875 11.0625 C 10.875 11.0625 10.308594 11.15625 9.6875 11.1875 L 13.4375 22.3125 L 15.6875 15.5625 L 14.09375 11.1875 C 13.539063 11.15625 13 11.0625 13 11.0625 C 12.445313 11.03125 12.507813 10.1875 13.0625 10.21875 C 13.0625 10.21875 14.769531 10.34375 15.78125 10.34375 C 16.859375 10.34375 18.53125 10.21875 18.53125 10.21875 C 19.085938 10.1875 19.148438 10.996094 18.59375 11.0625 C 18.59375 11.0625 18.023438 11.15625 17.40625 11.1875 L 21.125 22.25 L 22.15625 18.8125 C 22.675781 17.476563 22.9375 16.351563 22.9375 15.46875 C 22.9375 14.195313 22.488281 13.339844 22.09375 12.65625 C 21.574219 11.808594 21.09375 11.066406 21.09375 10.21875 C 21.09375 9.273438 21.800781 8.40625 22.8125 8.40625 C 22.859375 8.40625 22.890625 8.40625 22.9375 8.40625 C 21.105469 6.726563 18.679688 5.71875 16 5.71875 Z M 25.03125 11.0625 C 25.078125 11.390625 25.09375 11.746094 25.09375 12.125 C 25.09375 13.167969 24.898438 14.34375 24.3125 15.8125 L 21.1875 24.90625 C 24.25 23.121094 26.28125 19.796875 26.28125 16 C 26.28125 14.210938 25.835938 12.527344 25.03125 11.0625 Z M 6.59375 11.8125 C 6.023438 13.089844 5.71875 14.507813 5.71875 16 C 5.71875 20.074219 8.066406 23.582031 11.5 25.25 Z M 16.1875 16.90625 L 13.09375 25.875 C 14.015625 26.144531 14.988281 26.28125 16 26.28125 C 17.199219 26.28125 18.335938 26.09375 19.40625 25.71875 C 19.378906 25.675781 19.363281 25.613281 19.34375 25.5625 Z "/>
        </g>
    </symbol>
    <symbol viewBox="0 0 48 48" id="google" xmlns="http://www.w3.org/2000/svg">
        <path fill="#FFC107" d="M43.611,20.083H42V20H24v8h11.303c-1.649,4.657-6.08,8-11.303,8c-6.627,0-12-5.373-12-12  c0-6.627,5.373-12,12-12c3.059,0,5.842,1.154,7.961,3.039l5.657-5.657C34.046,6.053,29.268,4,24,4C12.955,4,4,12.955,4,24  c0,11.045,8.955,20,20,20c11.045,0,20-8.955,20-20C44,22.659,43.862,21.35,43.611,20.083z"/>
        <path fill="#FF3D00" d="M6.306,14.691l6.571,4.819C14.655,15.108,18.961,12,24,12c3.059,0,5.842,1.154,7.961,3.039l5.657-5.657  C34.046,6.053,29.268,4,24,4C16.318,4,9.656,8.337,6.306,14.691z"/>
        <path fill="#4CAF50" d="M24,44c5.166,0,9.86-1.977,13.409-5.192l-6.19-5.238C29.211,35.091,26.715,36,24,36  c-5.202,0-9.619-3.317-11.283-7.946l-6.522,5.025C9.505,39.556,16.227,44,24,44z"/>
        <path fill="#1976D2" d="M43.611,20.083H42V20H24v8h11.303c-0.792,2.237-2.231,4.166-4.087,5.571  c0.001-0.001,0.002-0.001,0.003-0.002l6.19,5.238C36.971,39.205,44,34,44,24C44,22.659,43.862,21.35,43.611,20.083z"/>
    </symbol>
</svg>